<svg width="230" height="116" viewBox="0 0 230 116" fill="none" xmlns="http://www.w3.org/2000/svg">
<path d="M5.53225e-05 2.80279C4.43777 0.93428 8.29157 2.50362e-05 11.5615 2.50362e-05C14.8314 2.50362e-05 17.712 0.311442 20.2033 0.934275C22.6947 1.55711 25.225 2.60815 27.7942 4.08739C30.4412 5.48877 32.8936 7.2405 35.1514 9.34258C39.5113 13.4689 43.2094 18.1402 46.2457 23.3564L69.6021 67.1496L103.469 8.87545H104.52L116.665 77.5432C118.534 88.1315 121.765 96.5398 126.358 102.768C130.952 109.074 137.258 112.227 145.277 112.227C145.822 112.227 146.328 112.227 146.795 112.227V113.395C142.513 114.563 138.309 115.147 134.183 115.147C125.774 115.147 118.106 111.838 111.176 105.221C104.481 98.9143 99.9265 89.6885 97.513 77.5432L91.7907 43.5597L69.8357 81.6306C66.8772 86.5354 65.359 90.8564 65.2812 94.5934H64.2301L35.1514 39.4723L29.4291 86.1851C29.1955 87.9757 29.9741 89.4161 31.7647 90.506C32.4654 90.9732 33.2051 91.2067 33.9836 91.2067H35.8521V92.2578H11.4447V91.0899H13.3132C15.3374 91.0899 17.1281 90.506 18.6852 89.3382C20.3201 88.0925 21.3322 86.4187 21.7215 84.3166L29.6627 28.6116C26.1592 22.3832 22.1497 16.8556 17.6341 12.0286C12.5736 6.57874 7.27946 3.85383 1.75178 3.85383C1.2068 3.85383 0.700746 3.89275 0.233619 3.97061L5.53225e-05 2.80279ZM163.343 40.0562C161.942 37.0978 161.241 34.295 161.241 31.6479C161.241 28.923 161.592 26.4317 162.292 24.1739C162.993 21.8382 164.161 19.5805 165.796 17.4005C167.431 15.1427 169.727 13.2742 172.686 11.795C176.734 9.69293 181.6 8.64189 187.284 8.64189C194.758 8.64189 201.842 10.5493 208.538 14.3642C217.335 19.3469 223.447 26.237 226.873 35.0346C228.819 39.8616 229.792 45.0389 229.792 50.5666C229.792 63.5683 225.082 74.0398 215.662 81.9809C206.319 89.9221 194.096 93.8927 178.992 93.8927C163.966 93.8927 151.704 89.9221 142.206 81.9809C132.785 74.0398 128.075 63.6073 128.075 50.6834C128.075 41.0294 130.8 32.66 136.25 25.5753C141.778 18.4126 149.213 13.5467 158.555 10.9775L159.256 12.0286C155.285 15.3763 152.288 20.2811 150.264 26.7431C148.24 33.205 147.227 40.173 147.227 47.6471C147.227 60.2595 150.147 70.3027 155.986 77.7768C161.825 85.2508 169.455 88.9879 178.875 88.9879C188.374 88.9879 196.003 85.4844 201.765 78.4775C207.604 71.3927 210.523 62.0502 210.523 50.4498C210.523 43.4429 209.433 37.1367 207.253 31.5311C205.151 25.8478 202.076 21.4879 198.028 18.4516C193.979 15.3374 189.464 13.7803 184.481 13.7803C178.953 13.7803 174.477 15.2206 171.051 18.1012C166.224 22.2275 163.81 27.4827 163.81 33.8668C163.81 35.891 164.083 37.9542 164.628 40.0562H163.343Z" fill="url(#paint0_linear_165_12)"/>
<defs>
<linearGradient id="paint0_linear_165_12" x1="-5.82324" y1="56.2348" x2="250.177" y2="56.2348" gradientUnits="userSpaceOnUse">
<stop offset="0.309788" stop-color="#4E0ED1"/>
<stop offset="0.755347" stop-color="white"/>
</linearGradient>
</defs>
</svg>
